<svg width="64" height="64" viewBox="0 0 64 64" fill="none" xmlns="http://www.w3.org/2000/svg">
	<rect width="52" height="52" x="6" y="6" fill="#11140F" rx="8"/>
	<path d="M14 17h4c6.9 0 11.1 1.9 14 5.8v24.6C29.1 43.8 24.9 42 18 42h-4V17Z" fill="#F5F7EE"/>
	<path d="M32 22.8C34.9 18.9 39.1 17 46 17h4v25h-4c-6.9 0-11.1 1.8-14 5.4V22.8Z" fill="#F0C419"/>
	<path d="M20 24h7M20 30h8M20 36h6" stroke="#315F4A" stroke-width="2.5" stroke-linecap="round"/>
	<path d="M32 22.75v24.7" stroke="#11140F" stroke-opacity="0.38" stroke-width="2" stroke-linecap="round"/>
	<circle cx="44" cy="25" r="3.25" fill="#E84D3D"/>
	<path d="M39 34h8M38.5 39.5h5.5" stroke="#11140F" stroke-opacity="0.8" stroke-width="2.5" stroke-linecap="round"/>
</svg>
